# xmcd
#
# Track frame offsets: 
#        150
#        10867
#        32597
#        50717
#        60949
#        81084
#        95590
#        111638
#        132215
#        138206
#        155907
#        171405
#        188011
#        203032
#        221605
#        240821
#        255411
#        270788
#        289396
#        303570
#        317628
#
# Disc length: 4439 seconds
#
# Revision: 0
# Processed by: cddbd v1.5.2PL0 Copyright (c) Steve Scherf et al.
# Submitted via: ExactAudioCopy v0.99pb5
#
DISCID=25115515
DTITLE=Elevated Ruffians - The Magnificent Soul LP [Disc 2]
DYEAR=2009
DGENRE=Hip-Hop
TTITLE0=Industry Beef
TTITLE1=Ain't Got Time feat. Disco
TTITLE2=Message In The Wind feat. Brotha Dvooa
TTITLE3=Got Me Down
TTITLE4=Back Up feat. S.O.P.
TTITLE5=Our Love
TTITLE6=Nothin' To Say feat. Anterluz
TTITLE7=No! No! No! feat. Queen Elizabeth
TTITLE8=Selfish
TTITLE9=Never feat. Cornbread
TTITLE10=Ain't That A Bitch
TTITLE11=Vice Versa Love feat. Boho Fau
TTITLE12=No Se feat. Mista B
TTITLE13=Just A Matter Of Time feat. Eyez
TTITLE14=Magnificent Macks
TTITLE15=Yes You Did
TTITLE16=You're No Good
TTITLE17=Nothing Can Stop Me feat. Vast Aire
TTITLE18=I Don't Care feat. Hardware
TTITLE19=It's Over
TTITLE20=Defensive Stance (Bonus Track)
EXTD=
EXTT0=
EXTT1=
EXTT2=
EXTT3=
EXTT4=
EXTT5=
EXTT6=
EXTT7=
EXTT8=
EXTT9=
EXTT10=
EXTT11=
EXTT12=
EXTT13=
EXTT14=
EXTT15=
EXTT16=
EXTT17=
EXTT18=
EXTT19=
EXTT20=
PLAYORDER=
